<?xml version="1.0" encoding="utf-8"?>
<!-- Generator: Adobe Illustrator 16.0.0, SVG Export Plug-In . SVG Version: 6.00 Build 0)  -->
<!DOCTYPE svg PUBLIC "-//W3C//DTD SVG 1.1//EN" "http://www.w3.org/Graphics/SVG/1.1/DTD/svg11.dtd">
<svg version="1.1" xmlns="http://www.w3.org/2000/svg" xmlns:xlink="http://www.w3.org/1999/xlink" x="0px" y="0px" width="163px"
	 height="" viewBox="0 0 500 500" style="enable-background:new 0 0 500 500;" xml:space="preserve">
<style type="text/css">
<![CDATA[
	.st0{fill:#231F20;}
	.st1{fill:none;stroke:#000000;stroke-width:3;stroke-miterlimit:10;}
	.st2{fill:#FFFFFF;}
	.st3{fill:#00A651;}
]]>
</style>
<g id="Layer_4">
	<circle class="st3" cx="250.6" cy="250.6" r="246.3"/>
</g>
<g id="_x2E_IS">
</g>
<g id="_x30_">
</g>
<g id="_x34_">
</g>
<g id="_x37_">
	<g>
		<g>
			<path class="st0" d="M350.2,175c0-5.5,4.3-9.3,10.1-9.3s10.1,4,10.1,9.7c0,5.6-4.2,9.5-10.1,9.5c-5.8,0-10.1-3.9-10.1-9.7V175z"
				/>
			<path class="st0" d="M352,202.4h78v14.2h-78V202.4z M443.1,209.1c0-5.2,4-8.5,8.7-8.5c5,0,8.9,3.5,8.9,8.9c0,5.2-3.9,8.7-8.9,8.7
				c-4.7,0-8.7-3.4-8.7-8.9V209.1z"/>
			<path class="st0" d="M366.5,238.1c-2.6,4.3-5.5,11.8-5.5,18.8c0,10.1,5,15,11.6,15c6.8,0,10.3-4,14.2-14.3
				c5.2-14.2,12.9-20.8,22.1-20.8c12.6,0,22.9,10.3,22.9,26.9c0,7.9-2.1,14.8-4.8,19l-10.1-3.4c1.8-3.1,4.5-8.7,4.5-15.9
				c0-8.4-4.8-12.9-10.6-12.9c-6.4,0-9.3,4.5-13.4,14.7c-5,13.4-11.8,20.5-23.4,20.5c-13.9,0-23.5-10.8-23.5-29
				c0-8.5,2.3-16.4,5.5-21.9L366.5,238.1z"/>
		</g>
		<g>
			<g>
				<path class="st2" d="M297.9,291.9c-30.6,0-51.6-28.7-52.1-80.5c0-52.8,22.9-81.5,54.7-81.5c32.8,0,51.8,29.4,51.8,79.3
					c0,53.3-20,82.7-54.2,82.7H297.9z M299.1,275.5c21.4,0,31.8-25.3,31.8-65.3c0-38.6-9.6-63.9-31.8-63.9
					c-19.3,0-31.8,24.6-31.8,63.9c-0.5,40.7,12,65.3,31.6,65.3H299.1z"/>
			</g>
			<g>
				<path class="st2" d="M208.5,287.6v-42.9h-72.8V231l69.9-100h22.9v97.4h21.9v16.4h-21.9v42.9H208.5z M208.5,228.4v-52.3
					c0-8.2,0.2-16.4,0.7-24.6h-0.7c-4.8,9.2-8.7,15.9-13,23.1l-38.3,53.3v0.5H208.5z"/>
			</g>
			<g>
				<path class="st2" d="M167.7,130.6v14L99.5,287.3H77.8l67.7-138.6v-0.5H68.9v-17.6H167.7z"/>
			</g>
		</g>
	</g>
</g>
<g id="VEFSÍÐRU_NETVERSLANIR">
	<g>
		<path class="st2" d="M86.3,359.3l-17.4-53h7.5l8.3,26.1c2.2,7.2,4.2,13.7,5.7,19.8h0.2c1.5-6.1,3.6-12.8,6.1-19.7l9-26.2h7.3
			l-18.9,53H86.3z"/>
		<path class="st2" d="M143.8,334.4h-20.5v19.1h23v5.7h-29.9v-53h28.7v5.7h-21.8v16.7h20.5V334.4z"/>
		<path class="st2" d="M151.7,306.3h28.5v5.7h-21.6v17.6h20v5.7h-20v24h-6.9V306.3z"/>
		<path class="st2" d="M184.7,350.9c3.1,1.9,7.5,3.4,12.2,3.4c7,0,11.1-3.6,11.1-9c0-5-2.8-7.9-10-10.5c-8.6-3-14-7.5-14-14.9
			c0-8.3,6.8-14.4,17.1-14.4c5.3,0,9.4,1.3,11.6,2.5l-1.9,5.7c-1.7-1-5.2-2.5-10-2.5c-7.2,0-10,4.3-10,7.9c0,4.9,3.2,7.3,10.5,10.1
			c9,3.5,13.4,7.8,13.4,15.6c0,8.1-6,15.3-18.5,15.3c-5.1,0-10.7-1.6-13.5-3.5L184.7,350.9z"/>
		<path class="st2" d="M265.2,336c-0.4-7.3-0.9-16.4-0.9-22.9h-0.2c-1.9,6.1-4,12.9-6.7,20.1l-9.4,25.7h-5.2l-8.6-25.2
			c-2.5-7.5-4.6-14.3-6.1-20.6h-0.2c-0.2,6.6-0.6,15.5-1,23.4l-1.4,22.7h-6.5l3.7-53h8.7l9,25.6c2.2,6.5,3.9,12.4,5.3,17.9h0.2
			c1.4-5.3,3.3-11.2,5.7-17.9l9.4-25.6h8.7l3.3,53h-6.8L265.2,336z"/>
		<path class="st2" d="M288.2,306.3v53h-6.9v-53H288.2z"/>
		<path class="st2" d="M292.6,329.6h6.4v-22.9c4.2-0.6,9.2-1.1,14.6-1.1c9.8,0,16.8,2.2,21.4,6.5c4.8,4.3,7.5,10.6,7.5,19.3
			c0,8.7-2.8,15.8-7.6,20.7c-5,5-13.2,7.6-23.4,7.6c-5,0-9-0.2-12.5-0.6v-24.1h-6.4V329.6z M320.1,335.1H306V354
			c1.7,0.3,4.2,0.3,6.8,0.3c14.7,0,22.6-8.1,22.6-22.7c0.1-12.7-7-20.5-21.4-20.5c-3.5,0-6.2,0.3-8,0.7v17.8h14.2V335.1z"/>
		<path class="st2" d="M355.6,306.3v31.5c0,11.8,5.3,16.8,12.3,16.8c7.8,0,12.9-5.2,12.9-16.8v-31.5h6.9v31
			c0,16.3-8.6,22.9-20.1,22.9c-10.9,0-19-6.1-19-22.6v-31.2H355.6z"/>
		<path class="st2" d="M396.9,307.1c3.5-0.7,8.5-1.2,13.1-1.2c7.3,0,12.1,1.4,15.4,4.4c2.6,2.3,4.2,5.9,4.2,10.1
			c0,6.9-4.5,11.6-10,13.4v0.2c4,1.4,6.4,5.2,7.8,10.7c1.7,7.4,3,12.5,4,14.5h-7.1c-0.9-1.6-2-6.1-3.5-12.7
			c-1.6-7.3-4.5-10.1-10.7-10.3h-6.4v23h-6.8V307.1z M403.7,331.1h7c7.3,0,12-4,12-10.1c0-6.8-5-9.8-12.2-9.8
			c-3.3,0-5.6,0.3-6.8,0.6V331.1z"/>
	</g>
	<line class="st1" x1="68.9" y1="296.8" x2="431.7" y2="296.8"/>
	<line class="st1" x1="68.9" y1="368.8" x2="431.7" y2="368.8"/>
</g>
</svg>
